# xmcd
#
# Track frame offsets: 
#        150
#        27826
#        56261
#        74435
#        102262
#        129131
#        143129
#        180828
#        201818
#        217043
#        233051
#        261089
#        291247
#
# Disc length: 4142 seconds
#
# Revision: 3
# Processed by: cddbd v1.5.1PL2 Copyright (c) Steve Scherf et al.
# Submitted via: ExactAudioCopy v0.95b2
#
DISCID=b7102c0d
DTITLE=Abdullah Ibrahim - A Celebration
DYEAR=2004
DGENRE=Jazz
TTITLE0=Ntsikana's Bell
TTITLE1=Ishmael
TTITLE2=The Perfumed Garden Wet With Rain
TTITLE3=Imam
TTITLE4=Saud
TTITLE5=Earth Bird
TTITLE6=African Market Place
TTITLE7=Ancient Cape
TTITLE8=The Mountain
TTITLE9=Siya Hamba Namhlanje
TTITLE10=Mannenberg Revisited
TTITLE11=Mindif
TTITLE12=Calypso Minor Remixed
EXTD="A celebration on the occasion of Abdullah Ibrahim's 70th birthda
EXTD=y."\n
EXTT0=
EXTT1=
EXTT2=
EXTT3=
EXTT4=
EXTT5=
EXTT6=
EXTT7=
EXTT8=
EXTT9=
EXTT10=
EXTT11=
EXTT12=
PLAYORDER=
